<?xml version="1.0" encoding="utf-8"?>
<!-- Generator: Adobe Illustrator 25.0.0, SVG Export Plug-In . SVG Version: 6.00 Build 0)  -->
<svg version="1.1" id="Vrstva_1" xmlns="http://www.w3.org/2000/svg" xmlns:xlink="http://www.w3.org/1999/xlink" x="0px" y="0px"
	 viewBox="0 0 1019.23 1480.85" style="enable-background:new 0 0 1019.23 1480.85;" xml:space="preserve">
<style type="text/css">
	.st0{fill:#98BFAD;}
</style>
<g>
	<path class="st0" d="M504.04,29.59c52.32-0.96,98.27,6.23,143.33,19.76c61.44,18.44,116.53,48.69,165.47,89.89
		c43.98,37.02,80.09,80.75,108.13,131.09c28.17,50.57,46.21,104.52,54.59,161.7c1.92,13.07,3.72,26.21,3.67,39.5
		c-0.02,5.74,1.24,11.39,1.31,17.17c0.35,33.15-4.43,65.71-10.99,98.08c-12.12,59.83-31.78,117.11-58.49,171.97
		c-11.49,23.6-24.97,46.13-38.03,68.87c-21.65,37.69-43.15,75.47-64.62,113.27c-20.97,36.93-41.83,73.92-62.74,110.88
		c-24.35,43.05-48.58,86.18-73.1,129.13c-25.88,45.35-51.99,90.56-78.08,135.78c-19.97,34.63-40.2,69.1-61.48,102.95
		c-6.12,9.73-12.26,19.45-19.24,28.6c-3.18,4.17-3.96,4.17-7.15-0.08c-10.08-13.39-18.87-27.65-27.68-41.88
		c-25.9-41.86-50.95-84.22-75.7-126.77c-23.86-41.03-47.52-82.18-71.15-123.34c-25-43.55-49.92-87.14-74.76-130.78
		c-20.63-36.26-41.1-72.62-61.63-108.93c-18.44-32.62-36.58-65.41-55.37-97.83c-28.8-49.7-52.37-101.71-69.8-156.43
		c-13.44-42.2-24.31-85.05-29.72-129.09c-2.84-23.1-2.57-46.28-0.87-69.53c2.03-27.76,6.42-55.08,13.37-81.96
		c17.02-65.77,46.76-125.2,89.68-177.98c11.36-13.96,23.03-27.66,36.04-40.1c30.82-29.47,64.46-55.12,101.91-75.82
		c34.78-19.22,71.35-33.72,109.7-43.76c24.67-6.46,49.74-10.69,75.21-13.02C480.34,29.61,494.82,30.36,504.04,29.59z M509.82,874.1
		c196.86,1.88,364.2-159.5,365.73-362.57c1.54-204.31-163.74-368.63-364.64-369.4c-205.01-0.78-366.99,167.66-367.68,364.95
		C142.53,708.23,308.18,876.42,509.82,874.1z"/>
	<path class="st0" d="M508.37,586.29c-60.21,0-120.43,0-180.64,0c-11.33,0-11.35,0.02-11.36,11.02
		c-0.02,14.74,0.04,29.48-0.02,44.22c-0.04,8.54-0.57,9.09-8.77,9.15c-9.24,0.07-18.49,0.12-27.73-0.04
		c-6.04-0.1-6.76-0.98-7.05-7.07c-0.08-1.74-0.03-3.5-0.03-5.25c0-99.18,0-198.36,0-297.55c0-12.48,0.01-12.49,12.24-12.49
		c8-0.01,15.99-0.11,23.98,0.05c6.41,0.13,7.3,1,7.34,7.56c0.1,19.49,0.05,38.97,0.05,58.46c0,38.22,0,76.45,0,114.67
		c0,2.25-0.1,4.51,0.08,6.74c0.37,4.65,1.19,5.4,6.03,5.76c1.74,0.13,3.5,0.06,5.24,0.06c49.47,0,98.94,0.01,148.41,0
		c11.09,0,11.12-0.03,11.12-11.34c0.01-42.47,0-84.94,0.01-127.41c0-11.2,0.03-11.22,11.24-11.22
		c53.22-0.01,106.44,0.34,159.65-0.11c39.65-0.34,77.83,27.67,86,69.53c0.87,4.46,1.16,8.91,1.16,13.4
		c0.02,62.21,0.02,124.41,0.03,186.62c0,1.25,0.05,2.51-0.07,3.75c-0.44,4.64-1.25,5.66-6.01,5.78c-8.49,0.22-16.99,0.1-25.48,0.11
		c-2,0-4.01,0.08-5.99-0.07c-4.7-0.36-5.63-1.16-5.91-5.91c-0.25-4.23-0.11-8.49-0.11-12.74c-0.01-11.99,0.03-23.98-0.02-35.98
		c-0.04-9.35-0.37-9.7-9.74-9.71c-54.47-0.02-108.93-0.01-163.4-0.01C521.86,586.29,515.11,586.29,508.37,586.29z"/>
	<path class="st0" d="M466.38,436.64c-0.03,36.07-28.66,64.25-65.12,64.11c-35.21-0.14-64.13-29.42-64.03-64.83
		c0.1-35.46,29.46-64.29,65.47-64.28C436.31,371.64,467.62,400.96,466.38,436.64z"/>
</g>
</svg>
