<?xml version="1.0" encoding="utf-8"?>
<!-- Generator: Adobe Illustrator 25.0.0, SVG Export Plug-In . SVG Version: 6.00 Build 0)  -->
<svg version="1.1" id="Vrstva_1" xmlns="http://www.w3.org/2000/svg" xmlns:xlink="http://www.w3.org/1999/xlink" x="0px" y="0px"
	 viewBox="0 0 1016.51 1470.64" style="enable-background:new 0 0 1016.51 1470.64;" xml:space="preserve">
<style type="text/css">
	.st0{fill:#694A52;}
</style>
<g>
	<path class="st0" d="M508.93,20.34c79.1,0.73,153.95,18.69,223.75,56.22c37.81,20.33,72.28,45.39,103.29,75.22
		c38.9,37.43,70.78,80.01,95.24,128.09c22.73,44.68,37.58,91.91,45.3,141.45c3.28,21.03,5.02,42.18,5.51,63.39
		c0.74,32.38-4.29,64.23-10.76,95.85c-13.69,67.01-35.99,131.02-68.03,191.46c-13.57,25.59-28.66,50.37-42.99,75.57
		c-28.65,50.39-57.25,100.81-85.86,151.22c-39.46,69.53-78.91,139.07-118.37,208.61c-34.53,60.85-69.67,121.34-105.43,181.48
		c-10.34,17.39-20.94,34.65-32.42,51.33c-1.28,1.85-2.53,3.73-3.89,5.51c-4.7,6.12-5.5,6.18-10.25-0.29
		c-13.32-18.15-24.92-37.43-36.6-56.65c-54.37-89.48-106.34-180.36-158.28-271.26c-34.09-59.66-68.07-119.37-101.94-179.15
		c-29.19-51.52-58.45-103-87.11-154.81c-18.17-32.85-32.73-67.42-45.18-102.83C59.45,636.82,47,592.09,39.64,546.05
		c-3.47-21.73-5.88-43.57-5.04-65.64c2-52.56,11.36-103.67,29.94-153.02c17.05-45.26,40.35-86.97,70.14-125.03
		c38.66-49.39,85.24-89.68,139.85-120.61c42.5-24.07,87.65-41.23,135.46-51.23c22.01-4.6,44.22-7.75,66.73-9.03
		C487.46,20.89,498.17,20.5,508.93,20.34z M875.59,501.64C875.3,300.11,712.01,134.53,507.8,134.9
		c-204.05,0.37-366.29,165.97-366.88,366.21c-0.6,202.61,162.99,370.64,370.1,368.98C715.82,868.43,876.27,702.45,875.59,501.64z"/>
	<path class="st0" d="M507.36,680.17c-62.97,0-125.94-0.01-188.92,0.02c-6.02,0-12.02-0.2-17.84-1.83
		c-15.97-4.47-30.02-21.37-30.53-38.02c-0.58-18.97-0.26-37.98-0.14-56.96c0.04-6.17,0.97-6.88,7.92-6.89
		c30.49-0.06,60.97-0.03,91.46-0.04c2.5,0,5.02,0.11,7.48-0.22c6.28-0.84,10.77-5.8,10.72-11.56c-0.05-6.35-4.62-11.11-11.45-11.46
		c-5.48-0.28-10.99-0.11-16.49-0.11c-25.99-0.01-51.98,0-77.97-0.01c-2.25,0-4.5-0.05-6.74-0.12c-2.96-0.09-4.61-1.64-4.85-4.6
		c-0.12-1.49-0.16-2.99-0.16-4.49c-0.01-15.49-0.05-30.98,0.01-46.48c0.03-8.39,0.63-9.03,8.92-9.04
		c30.24-0.05,60.47-0.02,90.71-0.04c2.75,0,5.52,0.08,8.23-0.27c5.98-0.78,9.74-5.41,9.58-11.42c-0.16-5.83-3.63-9.73-9.67-10.49
		c-2.71-0.34-5.49-0.25-8.23-0.25c-29.49-0.02-58.97,0.01-88.46-0.02c-10.66-0.01-11.07-0.42-11.09-10.86
		c-0.03-15.99,0.51-32-0.14-47.97c-0.84-20.55,14.93-44.78,44.55-46.09c2.25-0.1,4.5-0.06,6.75-0.06c124.69,0,249.39,0,374.08,0
		c4.5,0,8.96,0.15,13.44,0.83c21.81,3.31,37.49,24.81,37.32,44.19c-0.65,76.7-0.24,153.42-0.28,230.13
		c-0.01,23.59-16.1,41.34-39.58,43.79c-3.47,0.36-6.99,0.33-10.48,0.33C632.81,680.18,570.09,680.17,507.36,680.17z M577.45,624.86
		c51.25,1.66,105.45-39.97,105.73-105.61c0.27-64.35-52.5-106.92-105.33-107.49c-59.3-0.65-106.83,50.1-107.35,105.51
		C469.95,576.18,519.03,626.88,577.45,624.86z"/>
	<path class="st0" d="M577.39,339.93c-20.99,0-41.98,0.03-62.97-0.01c-10.44-0.02-12.28-2.69-9.22-12.71
		c2.89-9.47,12.73-19.47,25.68-19.3c31.23,0.4,62.47,0.44,93.7-0.03c11.93-0.18,24.82,10.81,26.27,23.32
		c0.79,6.86-0.52,8.64-7.49,8.68c-21.99,0.1-43.98,0.04-65.97,0.04C577.39,339.92,577.39,339.93,577.39,339.93z"/>
	<path class="st0" d="M660.11,518.85c0.53,43.35-34.03,83.6-83.39,83.29c-50.06-0.32-83.2-39.36-83.39-83.48
		c-0.18-44.31,34.95-83.91,84.03-83.7C625.8,435.17,660.82,474.41,660.11,518.85z"/>
</g>
</svg>
