<?xml version="1.0" encoding="utf-8"?>
<!-- Generator: Adobe Illustrator 25.0.0, SVG Export Plug-In . SVG Version: 6.00 Build 0)  -->
<svg version="1.1" id="Vrstva_1" xmlns="http://www.w3.org/2000/svg" xmlns:xlink="http://www.w3.org/1999/xlink" x="0px" y="0px"
	 viewBox="0 0 1035.57 1533.92" style="enable-background:new 0 0 1035.57 1533.92;" xml:space="preserve">
<style type="text/css">
	.st0{fill:#D83957;}
</style>
<g>
	<path class="st0" d="M515.05,34.27c65.12-0.54,124.4,10.81,181.51,33.3c48.97,19.28,93.68,45.86,134.04,79.72
		c45.68,38.32,83.16,83.42,112.15,135.47c29.11,52.28,47.87,108.09,56.44,167.36c4.09,28.29,5.39,56.71,4.08,85.19
		c-1.17,25.49-5.68,50.59-10.88,75.56c-12.23,58.73-31.36,115.1-57.14,169.28c-12.16,25.54-26.54,49.8-40.57,74.29
		c-24.45,42.71-48.74,85.51-73.04,128.3c-19.62,34.54-39.13,69.13-58.74,103.68c-28.6,50.41-57.12,100.86-85.91,151.16
		c-27.05,47.27-54.28,94.43-81.67,141.5c-20.98,36.06-41.99,72.11-65.16,106.84c-1.94,2.91-3.89,5.82-5.96,8.64
		c-5.06,6.91-5.59,6.98-10.45,0.26c-4.69-6.47-9.28-13.03-13.61-19.74c-19.25-29.81-37.3-60.35-55.47-90.82
		c-46.56-78.12-91.7-157.05-136.82-236c-34.08-59.64-68.1-119.33-101.97-179.09c-29.31-51.73-58.62-103.46-87.43-155.46
		c-15.52-28.01-28.03-57.48-39.32-87.42c-16.07-42.62-28.75-86.24-37.83-130.89c-5.03-24.76-8.47-49.75-9.34-74.99
		c-0.42-12.19,0.31-24.48,1.28-36.66c2.29-28.67,6.5-57.06,13.71-84.96c18.03-69.79,49.82-132.63,95.69-188.21
		c51.57-62.48,115.03-109.01,189.78-140.18c39.91-16.64,81.48-27.12,124.28-32.6C477.24,35.15,497.93,33.61,515.05,34.27z
		 M517.93,151.55c-202.71-2.31-374.46,164.2-376.94,371.65C138.5,729.99,303.6,904.03,515.75,904.97
		c214.06,0.95,377.19-170.54,379.3-372.8C897.27,318.15,722.23,149.55,517.93,151.55z"/>
	<path class="st0" d="M577.28,521.96c-1.71,3.67-1.14,6.18-1.15,8.6c-0.07,12.99,0,25.98-0.06,38.97c-0.01,2.74-0.26,5.48-0.56,8.2
		c-0.85,7.86-4.46,13-12.5,15.74c-9.66,3.3-18.88,7.9-28.18,12.17c-3.7,1.7-7,1.69-10.75,0.15c-14.09-5.8-28.23-11.47-42.44-16.96
		c-4.37-1.69-6.94-4.4-8.2-8.89c-1.5-5.34-2.43-10.67-2.39-16.23c0.09-12.96,0.03-25.91,0.03-38.93c-3.06-0.33-3.12,1.93-3.74,3.25
		c-4.36,9.26-8.59,18.59-12.85,27.9c-3.73,8.13-9.69,10.85-18.27,8.23c-1.66-0.51-3.28-1.21-4.86-1.95
		c-25.53-12.02-51.05-24.07-76.57-36.11c-2.03-0.96-4.02-2.02-6.07-2.93c-5.99-2.68-9.86-6.8-9.39-13.81
		c0.54-8.12,6.17-15.82,12.77-17.9c3.99-1.26,7.37,0.32,10.76,1.91c18.76,8.82,37.5,17.68,56.24,26.54
		c2.03,0.96,4.04,1.97,6.07,2.93c6.79,3.2,6.74,3.17,9.84-3.59c12.08-26.33,24.22-52.63,36.27-78.97c1.55-3.4,2.72-6.97,4.1-10.45
		c7.99-20.12,22.02-32.96,43.91-36.22c8.97-1.34,17.42,0.7,25.36,4.72c12.3,6.23,21.37,15.83,26.2,28.67
		c7.59,20.15,17.58,39.18,26.19,58.84c5.01,11.44,10.32,22.74,15.59,34.06c2.75,5.92,2.95,5.94,8.95,3.13
		c21.04-9.84,42.04-19.76,63.1-29.55c7.7-3.58,11.9-3.1,16.97,2.07c5.42,5.53,7.88,12.09,5.53,19.85c-1.2,3.98-4.52,5.76-7.97,7.4
		c-15.57,7.39-31.1,14.85-46.68,22.22c-11.96,5.66-23.96,11.25-35.96,16.83c-2.03,0.94-4.1,1.88-6.25,2.48
		c-7.64,2.14-13.27-0.15-16.8-7.3c-4.2-8.51-7.98-17.22-11.95-25.84C580.33,528.47,579.06,525.78,577.28,521.96z"/>
	<path class="st0" d="M650.97,690.3c-0.59,8.42-3.7,17.55-11.01,24.68c-10.12,9.86-21.73,12.14-35.11,6.77
		c-48.68-19.52-97.45-38.82-146.2-58.17c-13.46-5.35-26.85-10.91-40.46-15.85c-14.25-5.17-21.07-15.51-21.8-30.06
		c-0.67-13.31,9.04-28.37,21.19-33.7c7.95-3.49,16.05-3.38,24.07-0.23c15.81,6.2,31.58,12.52,47.36,18.78
		c46.89,18.61,93.79,37.21,140.67,55.85C643.71,663.95,651.09,674.54,650.97,690.3z"/>
	<path class="st0" d="M476.51,328.29c-1.34-21.93,18.24-46.69,47.25-46.88c24.54-0.16,48.12,20.69,47.79,47.56
		c-0.31,25.27-19.23,46.95-47.28,47.37C493.33,376.79,475.15,350.41,476.51,328.29z"/>
	<path class="st0" d="M517.55,695.38c-6.19,4.01-12.81,6.24-19.13,9.01c-19.42,8.5-39.36,15.93-58.32,25.33
		c-23.73,11.76-44.06-7.37-47.47-24.71c-3.34-16.97,3-29.91,18.85-37.18c4.53-2.08,9.18-3.9,13.72-5.97
		c3.59-1.64,6.95-1.8,10.77-0.27c25.46,10.21,51.01,20.22,76.51,30.32C514.07,692.53,515.8,693,517.55,695.38z"/>
	<path class="st0" d="M530.87,613.4c0.7-2.13,2.24-2.5,3.57-3.08c24.96-10.79,49.86-21.7,74.9-32.28
		c21.11-8.91,44.13,5.49,46.2,28.61c1.5,16.78-4.33,26.82-19.76,34c-18.22,8.48-18.22,8.47-37.03,0.95
		c-20.38-8.16-40.77-16.3-61.14-24.47C535.34,616.22,532.79,615.77,530.87,613.4z"/>
</g>
</svg>
