<?xml version="1.0" encoding="utf-8"?>
<!-- Generator: Adobe Illustrator 25.0.0, SVG Export Plug-In . SVG Version: 6.00 Build 0)  -->
<svg version="1.1" id="Vrstva_1" xmlns="http://www.w3.org/2000/svg" xmlns:xlink="http://www.w3.org/1999/xlink" x="0px" y="0px"
	 viewBox="0 0 1047.62 1549.99" style="enable-background:new 0 0 1047.62 1549.99;" xml:space="preserve">
<style type="text/css">
	.st0{fill:#FF907C;stroke:#AFAFAF;stroke-miterlimit:10;}
</style>
<g>
	<path class="st0" d="M519.47,40.69c66.85-0.91,127.2,10.87,185.52,33.96c47.84,18.94,91.46,44.94,130.8,77.89
		c44.62,37.37,81.82,81.2,110.78,131.83c29.08,50.84,48.39,105.15,57.8,162.98c5.03,30.91,7.25,62.04,5.81,93.3
		c-1.06,22.96-4.76,45.66-9.12,68.25c-14.32,74.17-39.4,144.54-75.28,210.95c-15.43,28.56-32.28,56.36-48.36,84.57
		c-22.27,39.06-44.44,78.18-66.62,117.3c-22.67,39.98-45.29,80-67.97,119.98c-23.67,41.72-47.29,83.46-71.1,125.09
		c-21.2,37.08-42.61,74.05-63.97,111.05c-19.98,34.62-40.45,68.95-61.75,102.78c-4.92,7.82-10.11,15.48-15.45,23.02
		c-5.56,7.83-5.95,7.69-11.92-0.25c-8.87-11.8-16.59-24.38-24.31-36.92c-48.09-78.08-93.82-157.54-139.57-237
		c-27.43-47.62-54.75-95.31-81.9-143.09c-31.59-55.6-62.93-111.35-94.38-167.03c-16.46-29.15-33.14-58.17-49.32-87.47
		c-18.26-33.08-33.83-67.43-46.86-102.9c-15.79-42.99-28.51-86.88-36.95-131.92c-5.2-27.76-9.28-55.72-8.17-84.08
		c1.7-43.34,8.01-85.94,20.62-127.58c14.68-48.48,36.37-93.52,65.15-135.14c25-36.15,54.33-68.35,88.02-96.66
		c31.17-26.19,64.93-48.3,101.62-65.84c44.71-21.38,91.61-35.63,140.76-42.58C476.67,41.87,500.02,40.08,519.47,40.69z
		 M524.96,913.55c208.58-0.29,376.11-169.14,377.21-376.01c1.1-208.65-166.07-380.88-378.89-380.49
		c-211.21,0.39-377,169.33-377.62,377.25C145.02,746.03,315.97,914.16,524.96,913.55z"/>
	<path class="st0" d="M297.75,366.59c-0.07-4.47,0.16-10.39,2.28-16.17c6.79-18.55,21.61-26.96,41.45-27.44
		c14.74-0.36,28.75,3.88,41.82,10.43c40.48,20.29,69.95,51.04,86.41,93.48c5.88,15.18,7.84,30.99,2.71,46.98
		c-0.93,2.91-0.68,5.13,1.79,7.33c13.23,11.8,26.31,23.77,39.49,35.62c4.67,4.19,4.81,4.2,9.8-0.33
		c16.65-15.09,33.3-30.18,49.81-45.43c2.9-2.68,7.56-4.34,8.3-8.3c0.77-4.11-3.88-6.59-5.62-10.12c-6.5-13.22-6.37-25.97,2.55-38.09
		c2.06-2.8,4.41-5.43,6.87-7.9c33.35-33.43,66.75-66.83,100.14-100.22c1.41-1.41,2.83-2.82,4.34-4.13c2.24-1.95,4.11-0.95,5.84,0.87
		c1.74,1.83,1.41,3.51-0.2,5.24c-5.61,6.04-11.13,12.16-16.78,18.15c-19.71,20.89-39.48,41.72-59.18,62.62
		c-3.08,3.27-6.07,6.64-8.85,10.17c-2.78,3.53-2.7,6.96-0.22,9.46c2.75,2.77,6.55,2.88,10.07-0.13c4.74-4.05,9.36-8.27,13.89-12.56
		c13.07-12.36,26.01-24.85,39.11-37.16c12.19-11.46,24.5-22.79,36.82-34.11c3.08-2.83,4.75-2.71,6.86-0.14
		c1.27,1.55,1.57,3.11,0.31,4.75c-0.76,0.99-1.62,1.9-2.48,2.8c-18.86,19.97-37.86,39.82-56.54,59.96
		c-7.98,8.61-15.99,17.19-24.16,25.62c-1.04,1.07-2.07,2.2-2.86,3.45c-2.12,3.33-1.98,6.59,0.41,8.91c2.71,2.63,5.87,2.51,8.99,0.91
		c1.3-0.67,2.4-1.77,3.5-2.78c5.88-5.41,11.79-10.79,17.6-16.28c22.31-21.12,44.58-42.28,66.87-63.41c1.27-1.2,2.55-2.4,3.94-3.45
		c1.93-1.46,3.74-0.96,5.35,0.66c1.7,1.7,1.8,3.48,0.23,5.3c-2.77,3.22-5.45,6.52-8.35,9.61c-19.35,20.54-38.77,41.02-58.14,61.55
		c-5.48,5.81-10.86,11.72-16.29,17.59c-1.36,1.47-2.82,2.89-3.31,4.91c-0.75,3.11-0.49,5.99,2.37,8.05
		c2.57,1.86,5.17,1.65,7.64-0.14c1.82-1.32,3.62-2.68,5.24-4.22c8.31-7.93,16.64-15.84,25.08-23.64
		c19.8-18.31,39.27-36.98,58.88-55.5c0.91-0.86,1.81-1.73,2.77-2.52c1.87-1.54,3.65-1.32,5.27,0.43c1.56,1.69,1.86,3.51,0.37,5.38
		c-0.93,1.17-1.95,2.28-3.01,3.34c-34.79,34.82-69.53,69.7-104.41,104.42c-12.95,12.89-29.92,14.34-45.17,4.36
		c-1.25-0.82-2.48-1.68-3.69-2.57c-2.19-1.62-4.18-1.31-6.01,0.57c-3.14,3.21-6.37,6.36-9.39,9.69
		c-13.94,15.34-27.83,30.71-41.71,46.1c-3.74,4.15-3.89,4.51,0.36,8.45c15.18,14.11,30.47,28.1,45.77,42.09
		c7.55,6.91,15.23,13.68,22.81,20.56c21.63,19.64,43.25,39.29,64.85,58.95c2.59,2.35,5.14,4.76,7.53,7.31
		c10.64,11.37,10.38,27.58-0.55,38.33c-10.48,10.3-26.84,10.39-37.77-0.3c-6.6-6.45-12.57-13.54-18.77-20.38
		c-13.08-14.43-26.13-28.89-39.19-43.34c-17.41-19.27-34.81-38.54-52.22-57.8c-5.36-5.93-10.7-11.87-16.11-17.75
		c-4.28-4.64-5.34-4.69-9.51-0.12c-9.94,10.87-19.81,21.81-29.68,32.75c-12.04,13.35-24.02,26.76-36.07,40.09
		c-18.58,20.56-37.27,41.03-55.79,61.64c-6.77,7.54-14.27,13.24-25.06,12.78c-10.47-0.44-18.22-5.55-22.87-14.56
		c-4.65-9.01-4.37-18.37,1.36-27.08c1.49-2.27,3.35-4.39,5.36-6.22c14.19-12.98,28.46-25.85,42.69-38.78
		c11.83-10.74,23.66-21.49,35.45-32.27c19.53-17.86,39.08-35.71,58.52-53.67c6.83-6.31,6.6-6.37,0.22-13.29
		c-10.15-11.01-20.3-22.04-30.19-33.29c-3.59-4.09-7.07-5.15-12.4-3.47c-13.42,4.23-26.69,1.75-39.78-2.19
		c-17.48-5.27-33.03-14.21-47.2-25.51c-21.16-16.87-38.47-37.01-50.4-61.48C301.07,395.94,297.77,382.03,297.75,366.59z"/>
</g>
</svg>
